<?xml version="1.0" encoding="UTF-8"?>
<svg id="_레이어_1" xmlns="http://www.w3.org/2000/svg" version="1.1" viewBox="0 0 288.61 80">
  <!-- Generator: Adobe Illustrator 29.6.0, SVG Export Plug-In . SVG Version: 2.1.1 Build 207)  -->
  <defs>
    <style>
      .st0 {
        fill: #00aae9;
      }

      .st1 {
        fill: #0d6efd;
      }
    </style>
  </defs>
  <path class="st0" d="M41.71,57.33c0,14.81-8.41,22.67-23.5,22.67-10.79,0-17.65-7.22-17.65-7.22l5.49-14.35s5.39,5.12,9.78,5.12c4.94,0,8.69-3.02,8.69-10.61V3.2h17.19v54.13Z"/>
  <path class="st0" d="M72.97,30.35c15.54,0,27.98,10.24,27.98,24.87s-11.79,24.78-27.98,24.78-28.25-10.33-28.25-24.78,12.43-24.87,28.25-24.87ZM72.88,66.19c6.31,0,10.88-4.57,10.88-10.97s-4.85-11.06-10.88-11.06-10.97,4.57-10.97,11.06,4.39,10.97,10.97,10.97Z"/>
  <path class="st0" d="M136.41,80c-6.4,0-11.89-2.83-15.36-6.67h-.18v5.3h-16V0h16.18v36.21c3.84-3.75,9.05-5.85,15.36-5.85,13.71,0,23.31,11.15,23.31,24.87s-9.6,24.78-23.31,24.78h0ZM131.57,44.16c-6.03,0-10.88,4.57-10.88,11.06s4.57,10.97,10.88,10.97,10.97-4.57,10.97-10.97-4.85-11.06-10.97-11.06Z"/>
  <path class="st1" d="M231.85,52.75c-4.11,19.11-20.02,27.25-34.83,27.25-20.3,0-36.76-17.46-36.76-39.04S175.8,1.83,197.02,1.83c13.26,0,22.49,4.94,29.07,12.89l-11.25,12.34c-4.39-7.04-10.15-9.69-16.82-9.69-10.6,0-19.2,10.51-19.2,23.59s8.59,23.22,19.2,23.22c8.23,0,16.37-5.3,16.37-14.54h-17.37v-13.26h34.83v16.37h0Z"/>
  <path class="st1" d="M260.63,30.35c15.54,0,27.98,10.24,27.98,24.87s-11.79,24.78-27.98,24.78-28.25-10.33-28.25-24.78,12.44-24.87,28.25-24.87ZM260.54,66.19c6.31,0,10.88-4.57,10.88-10.97s-4.85-11.06-10.88-11.06-10.97,4.57-10.97,11.06,4.39,10.97,10.97,10.97Z"/>
</svg>